<svg width="78" height="78" viewBox="0 0 78 78" fill="none" xmlns="http://www.w3.org/2000/svg">
<g filter="url(#filter0_d_0_10)">
<circle cx="39" cy="35" r="35" fill="white"/>
</g>
<path d="M39 25C40.3261 25 41.5979 25.5268 42.5355 26.4645C43.4732 27.4021 44 28.6739 44 30C44 31.3261 43.4732 32.5979 42.5355 33.5355C41.5979 34.4732 40.3261 35 39 35C37.6739 35 36.4021 34.4732 35.4645 33.5355C34.5268 32.5979 34 31.3261 34 30C34 28.6739 34.5268 27.4021 35.4645 26.4645C36.4021 25.5268 37.6739 25 39 25ZM39 37.5C44.525 37.5 49 39.7375 49 42.5V45H29V42.5C29 39.7375 33.475 37.5 39 37.5Z" fill="#051DA0"/>
<defs>
<filter id="filter0_d_0_10" x="0" y="0" width="78" height="78" filterUnits="userSpaceOnUse" color-interpolation-filters="sRGB">
<feFlood flood-opacity="0" result="BackgroundImageFix"/>
<feColorMatrix in="SourceAlpha" type="matrix" values="0 0 0 0 0 0 0 0 0 0 0 0 0 0 0 0 0 0 127 0" result="hardAlpha"/>
<feOffset dy="4"/>
<feGaussianBlur stdDeviation="2"/>
<feComposite in2="hardAlpha" operator="out"/>
<feColorMatrix type="matrix" values="0 0 0 0 0 0 0 0 0 0 0 0 0 0 0 0 0 0 0.25 0"/>
<feBlend mode="normal" in2="BackgroundImageFix" result="effect1_dropShadow_0_10"/>
<feBlend mode="normal" in="SourceGraphic" in2="effect1_dropShadow_0_10" result="shape"/>
</filter>
</defs>
</svg>
