<svg width="35" height="42" viewBox="0 0 35 42" fill="none" xmlns="http://www.w3.org/2000/svg">
<g filter="url(#filter0_d_0_28)">
<path d="M30.625 9.47901C30.625 12.2936 28.3354 14.5832 25.5208 14.5832C22.7063 14.5832 20.4167 12.2936 20.4167 9.47901C20.4167 6.66443 22.7063 4.37484 25.5208 4.37484C28.3354 4.37484 30.625 6.66443 30.625 9.47901ZM27.7083 17.1936C26.9792 17.3832 26.25 17.4998 25.5208 17.4998C23.3948 17.496 21.3569 16.6497 19.8535 15.1463C18.3501 13.643 17.5039 11.6051 17.5 9.47901C17.5 7.33526 18.3458 5.39568 19.6875 3.95193C19.4228 3.62751 19.0891 3.36622 18.7107 3.1871C18.3323 3.00798 17.9187 2.91553 17.5 2.91651C15.8958 2.91651 14.5833 4.22901 14.5833 5.83318V6.25609C10.2521 7.53943 7.29167 11.5207 7.29167 16.0415V24.7915L4.375 27.7082V29.1665H30.625V27.7082L27.7083 24.7915V17.1936ZM17.5 33.5415C19.1187 33.5415 20.4167 32.2436 20.4167 30.6248H14.5833C14.5833 31.3984 14.8906 32.1403 15.4376 32.6872C15.9846 33.2342 16.7265 33.5415 17.5 33.5415Z" fill="white"/>
</g>
<defs>
<filter id="filter0_d_0_28" x="-4" y="0" width="43" height="43" filterUnits="userSpaceOnUse" color-interpolation-filters="sRGB">
<feFlood flood-opacity="0" result="BackgroundImageFix"/>
<feColorMatrix in="SourceAlpha" type="matrix" values="0 0 0 0 0 0 0 0 0 0 0 0 0 0 0 0 0 0 127 0" result="hardAlpha"/>
<feOffset dy="4"/>
<feGaussianBlur stdDeviation="2"/>
<feComposite in2="hardAlpha" operator="out"/>
<feColorMatrix type="matrix" values="0 0 0 0 0 0 0 0 0 0 0 0 0 0 0 0 0 0 0.25 0"/>
<feBlend mode="normal" in2="BackgroundImageFix" result="effect1_dropShadow_0_28"/>
<feBlend mode="normal" in="SourceGraphic" in2="effect1_dropShadow_0_28" result="shape"/>
</filter>
</defs>
</svg>
