<?xml version="1.0" encoding="UTF-8"?>
<svg id="Layer_1" data-name="Layer 1" xmlns="http://www.w3.org/2000/svg" width="426" height="468" viewBox="0 0 426 468">
  <defs>
    <style>
      .cls-1 {
        fill: none;
      }

      .cls-2 {
        fill: #1e2c5b;
      }

      .cls-3, .cls-4 {
        fill: #0a122d;
      }

      .cls-4 {
        opacity: .4;
      }
    </style>
  </defs>
  <path class="cls-2" d="M321.83,168.91c-5.05,0-9.15-4.1-9.15-9.15V70.19c0-5.05,4.1-9.15,9.15-9.15s9.15,4.1,9.15,9.15v89.57c0,5.05-4.1,9.15-9.15,9.15Z"/>
  <path class="cls-2" d="M38.1,103.95c0-5.05,4.1-9.15,9.15-9.15h90.3c5.05,0,9.15,4.1,9.15,9.15s-4.1,9.15-9.15,9.15H47.26c-5.05,0-9.15-4.1-9.15-9.15Z"/>
  <path class="cls-2" d="M230.3,126.52c5.05,0,9.15,4.1,9.15,9.15v45.76c0,5.05-4.1,9.15-9.15,9.15s-9.15-4.1-9.15-9.15v-45.76c0-5.05,4.1-9.15,9.15-9.15Z"/>
  <path class="cls-2" d="M1.5,200.96H-16.36v18.3H1.5c5.05,0,9.15-4.1,9.15-9.15s-4.1-9.15-9.15-9.15Z"/>
  <path class="cls-2" d="M1.5,382.28H-16.36v18.3H1.5c5.05,0,9.15-4.1,9.15-9.15s-4.1-9.15-9.15-9.15Z"/>
  <path class="cls-4" d="M1.5,323.06c-5.05,0-9.15-4.1-9.15-9.15V150.32c0-5.05,4.1-9.15,9.15-9.15s9.15,4.1,9.15,9.15v163.59c0,5.05-4.1,9.15-9.15,9.15Z"/>
  <path class="cls-4" d="M93.02,189.98c-5.05,0-9.15-4.1-9.15-9.15V48.42c0-5.05,4.1-9.15,9.15-9.15s9.15,4.1,9.15,9.15V180.83c0,5.05-4.1,9.15-9.15,9.15Z"/>
  <path class="cls-4" d="M230.3,144.83c46.45,0,90.12,18.09,122.96,50.93,32.84,32.84,50.93,76.51,50.93,122.96v151.5h18.3v-151.5c0-51.34-19.99-99.6-56.29-135.91-36.3-36.3-84.57-56.29-135.91-56.29-5.05,0-9.15,4.1-9.15,9.15s4.1,9.15,9.15,9.15Z"/>
  <path class="cls-2" d="M56.41,470.22v-23.98c0-5.05-4.1-9.15-9.15-9.15s-9.15,4.1-9.15,9.15v23.98h18.3Z"/>
  <path class="cls-2" d="M102.17,470.22v-151.5c0-34.22,13.33-66.4,37.53-90.6,24.2-24.2,56.38-37.53,90.6-37.53s66.4,13.33,90.6,37.53c24.2,24.2,37.53,56.38,37.53,90.6v151.5h18.3v-151.5c0-39.11-15.23-75.89-42.89-103.55-27.66-27.66-64.43-42.89-103.55-42.89s-75.89,15.23-103.55,42.89c-27.66,27.66-42.89,64.43-42.89,103.55v151.5h18.3Z"/>
  <path class="cls-2" d="M330.98,470.22v-151.5c0-5.05-4.1-9.15-9.15-9.15s-9.15,4.1-9.15,9.15v151.5h18.3Z"/>
  <path class="cls-2" d="M138.78,427.33c-5.05,0-9.15-4.1-9.15-9.15v-99.46c0-55.51,45.16-100.68,100.68-100.68,5.05,0,9.15,4.1,9.15,9.15s-4.1,9.15-9.15,9.15c-45.42,0-82.37,36.95-82.37,82.37v99.46c0,5.05-4.1,9.15-9.15,9.15Z"/>
  <path class="cls-4" d="M147.93,470.22v-52.04c0-5.05-4.1-9.15-9.15-9.15s-9.15,4.1-9.15,9.15v52.04h18.3Z"/>
  <path class="cls-2" d="M184.54,144.83c-5.05,0-9.15-4.1-9.15-9.15v-55.32c0-42.9,34.9-77.79,77.79-77.79,5.05,0,9.15,4.1,9.15,9.15s-4.1,9.15-9.15,9.15c-32.8,0-59.49,26.69-59.49,59.49v55.32c0,5.05-4.1,9.15-9.15,9.15Z"/>
  <path class="cls-2" d="M47.26,455.4c-5.05,0-9.15-4.1-9.15-9.15V36.22c0-5.05,4.1-9.15,9.15-9.15s9.15,4.1,9.15,9.15V446.25c0,5.05-4.1,9.15-9.15,9.15Z"/>
  <path class="cls-2" d="M10.65,470.22v-78.79c0-5.05-4.1-9.15-9.15-9.15s-9.15,4.1-9.15,9.15v78.79H10.65Z"/>
  <path class="cls-2" d="M193.69,470.22v-5.88c0-20.19,16.42-36.61,36.61-36.61s36.61,16.42,36.61,36.61v5.88h18.3v-5.88c0-30.28-24.63-54.91-54.91-54.91s-54.91,24.63-54.91,54.91v5.88h18.3Z"/>
  <path class="cls-4" d="M230.3,427.74c-5.05,0-9.15-4.1-9.15-9.15v-99.86c0-5.05,4.1-9.15,9.15-9.15s9.15,4.1,9.15,9.15v99.86c0,5.05-4.1,9.15-9.15,9.15Z"/>
  <path class="cls-2" d="M38.1,337.58c0-5.05,4.1-9.15,9.15-9.15h45.76c5.05,0,9.15,4.1,9.15,9.15s-4.1,9.15-9.15,9.15H47.26c-5.05,0-9.15-4.1-9.15-9.15Z"/>
  <path class="cls-2" d="M266.04,271.01c0-5.05,4.1-9.15,9.15-9.15h84.16c5.05,0,9.15,4.1,9.15,9.15s-4.1,9.15-9.15,9.15h-84.16c-5.05,0-9.15-4.1-9.15-9.15Z"/>
  <path class="cls-2" d="M276.07,70.19c0-5.05,4.1-9.15,9.15-9.15h105.25c5.05,0,9.15,4.1,9.15,9.15s-4.1,9.15-9.15,9.15h-105.25c-5.05,0-9.15-4.1-9.15-9.15Z"/>
  <path class="cls-4" d="M221.15,318.72c0-5.05,4.1-9.15,9.15-9.15h91.52c5.05,0,9.15,4.1,9.15,9.15s-4.1,9.15-9.15,9.15h-91.52c-5.05,0-9.15-4.1-9.15-9.15Z"/>
  <g>
    <path class="cls-3" d="M262.34,11.71c0,5.05-4.1,9.15-9.15,9.15s-9.15-4.1-9.15-9.15,4.1-9.15,9.15-9.15,9.15,4.1,9.15,9.15Z"/>
    <circle class="cls-3" cx="184.54" cy="135.68" r="9.15"/>
    <path class="cls-3" d="M56.41,36.22c0,5.05-4.1,9.15-9.15,9.15s-9.15-4.1-9.15-9.15,4.1-9.15,9.15-9.15,9.15,4.1,9.15,9.15Z"/>
    <circle class="cls-3" cx="1.5" cy="150.32" r="9.15"/>
    <path class="cls-3" d="M147.93,418.18c0,5.05-4.1,9.15-9.15,9.15s-9.15-4.1-9.15-9.15,4.1-9.15,9.15-9.15,9.15,4.1,9.15,9.15Z"/>
    <path class="cls-3" d="M10.65,391.43c0,5.05-4.1,9.15-9.15,9.15s-9.15-4.1-9.15-9.15,4.1-9.15,9.15-9.15,9.15,4.1,9.15,9.15Z"/>
    <path class="cls-3" d="M10.65,313.91c0,5.05-4.1,9.15-9.15,9.15s-9.15-4.1-9.15-9.15,4.1-9.15,9.15-9.15,9.15,4.1,9.15,9.15Z"/>
    <circle class="cls-3" cx="47.26" cy="446.25" r="9.15"/>
    <path class="cls-3" d="M239.46,418.58c0,5.05-4.1,9.15-9.15,9.15s-9.15-4.1-9.15-9.15,4.1-9.15,9.15-9.15,9.15,4.1,9.15,9.15Z"/>
    <circle class="cls-3" cx="230.3" cy="135.68" r="9.15"/>
    <path class="cls-3" d="M102.17,180.83c0,5.05-4.1,9.15-9.15,9.15s-9.15-4.1-9.15-9.15,4.1-9.15,9.15-9.15,9.15,4.1,9.15,9.15Z"/>
    <circle class="cls-3" cx="93.02" cy="48.42" r="9.15"/>
    <circle class="cls-3" cx="93.02" cy="337.58" r="9.15"/>
    <circle class="cls-3" cx="47.26" cy="337.58" r="9.15"/>
    <circle class="cls-3" cx="93.02" cy="103.95" r="9.15"/>
    <circle class="cls-3" cx="137.56" cy="103.95" r="9.15"/>
    <circle class="cls-3" cx="47.26" cy="103.95" r="9.15"/>
    <circle class="cls-3" cx="359.35" cy="271.01" r="9.15"/>
    <circle class="cls-3" cx="275.19" cy="271.01" r="9.15"/>
    <circle class="cls-3" cx="285.22" cy="70.19" r="9.15"/>
    <circle class="cls-3" cx="1.5" cy="210.11" r="9.15"/>
    <path class="cls-3" d="M221.15,181.44c0-5.05,4.1-9.15,9.15-9.15s9.15,4.1,9.15,9.15-4.1,9.15-9.15,9.15-9.15-4.1-9.15-9.15Z"/>
    <circle class="cls-3" cx="230.3" cy="227.2" r="9.15"/>
    <circle class="cls-3" cx="230.3" cy="318.72" r="9.15"/>
    <circle class="cls-3" cx="321.83" cy="318.72" r="9.15"/>
    <path class="cls-3" d="M330.98,70.19c0,5.05-4.1,9.15-9.15,9.15s-9.15-4.1-9.15-9.15,4.1-9.15,9.15-9.15,9.15,4.1,9.15,9.15Z"/>
    <circle class="cls-3" cx="321.83" cy="159.76" r="9.15"/>
  </g>
  <path class="cls-1" d="M422.5-94.31c.5,186.31,.5,373.31,0,559.62"/>
</svg>